<svg width="112" height="112" viewBox="0 0 112 112" fill="none" xmlns="http://www.w3.org/2000/svg">
<rect width="112" height="112" rx="56" fill="#EC3750"/>
<g clip-path="url(#clip0_1_160)">
<path d="M60.2424 52.96C59.8674 52.585 59.3588 52.3744 58.8284 52.3744C58.2981 52.3744 57.7895 52.585 57.4144 52.96L56.0004 54.372C55.6315 54.754 55.1901 55.0587 54.7021 55.2684C54.214 55.478 53.6892 55.5884 53.158 55.593C52.6269 55.5976 52.1002 55.4964 51.6086 55.2953C51.117 55.0941 50.6704 54.7971 50.2949 54.4216C49.9193 54.046 49.6223 53.5994 49.4212 53.1078C49.22 52.6162 49.1188 52.0895 49.1234 51.5584C49.128 51.0273 49.2384 50.5024 49.448 50.0144C49.6577 49.5263 49.9624 49.085 50.3444 48.716L61.6044 37.452C64.2703 36.8456 67.0594 37.0952 69.5753 38.1651C72.0912 39.2351 74.2057 41.071 75.6182 43.4118C77.0307 45.7525 77.6693 48.4791 77.4431 51.2036C77.2169 53.9282 76.1376 56.5121 74.3584 58.588L70.1424 62.858L60.2424 52.958V52.96ZM38.3224 40.936C40.392 38.8667 43.0989 37.5559 46.0056 37.2155C48.9122 36.8751 51.8488 37.5249 54.3404 39.06L47.5144 45.888C46.036 47.3634 45.1933 49.3586 45.1663 51.4471C45.1393 53.5356 45.9302 55.5519 47.37 57.065C48.8098 58.5782 50.7843 59.4683 52.8715 59.5451C54.9588 59.6219 56.9934 58.8793 58.5404 57.476L58.8284 57.202L67.3144 65.686L58.8284 74.172C58.0783 74.9219 57.0611 75.3431 56.0004 75.3431C54.9398 75.3431 53.9226 74.9219 53.1724 74.172L38.3204 59.32C35.8827 56.882 34.5132 53.5756 34.5132 50.128C34.5132 46.6804 35.8827 43.3739 38.3204 40.936H38.3224Z" fill="white"/>
</g>
<defs>
<clipPath id="clip0_1_160">
<rect width="48" height="48" fill="white" transform="translate(32 32)"/>
</clipPath>
</defs>
</svg>
