<svg width="112" height="112" viewBox="0 0 112 112" fill="none" xmlns="http://www.w3.org/2000/svg">
<rect width="112" height="112" rx="56" fill="#EC3750"/>
<g clip-path="url(#clip0_1_181)">
<path d="M44 68H68V44H44V68ZM60 72H52V76H48V72H42C41.4696 72 40.9609 71.7893 40.5858 71.4142C40.2107 71.0391 40 70.5304 40 70V64H36V60H40V52H36V48H40V42C40 41.4696 40.2107 40.9609 40.5858 40.5858C40.9609 40.2107 41.4696 40 42 40H48V36H52V40H60V36H64V40H70C70.5304 40 71.0391 40.2107 71.4142 40.5858C71.7893 40.9609 72 41.4696 72 42V48H76V52H72V60H76V64H72V70C72 70.5304 71.7893 71.0391 71.4142 71.4142C71.0391 71.7893 70.5304 72 70 72H64V76H60V72ZM48 48H64V64H48V48Z" fill="white"/>
</g>
<defs>
<clipPath id="clip0_1_181">
<rect width="48" height="48" fill="white" transform="translate(32 32)"/>
</clipPath>
</defs>
</svg>
