<svg width="112" height="112" viewBox="0 0 112 112" fill="none" xmlns="http://www.w3.org/2000/svg">
<rect width="112" height="112" rx="56" fill="#EC3750"/>
<g clip-path="url(#clip0_1_139)">
<path d="M38 38H56.764C57.1353 38.0002 57.4993 38.1038 57.8151 38.2991C58.1308 38.4944 58.386 38.7738 58.552 39.106L60 42H72C72.5304 42 73.0391 42.2107 73.4142 42.5858C73.7893 42.9609 74 43.4696 74 44V66C74 66.5304 73.7893 67.0391 73.4142 67.4142C73.0391 67.7893 72.5304 68 72 68H59.236C58.8647 67.9998 58.5007 67.8962 58.1849 67.7009C57.8692 67.5056 57.614 67.2262 57.448 66.894L56 64H42V76H38V38Z" fill="white"/>
</g>
<defs>
<clipPath id="clip0_1_139">
<rect width="48" height="48" fill="white" transform="translate(32 32)"/>
</clipPath>
</defs>
</svg>
